<?xml version="1.0" encoding="UTF-8"?>
<svg version="1.1" xmlns="http://www.w3.org/2000/svg" width="150" height="150">
<path d="M0 0 C1.9296875 1.16015625 1.9296875 1.16015625 4.6796875 3.47265625 C6.76129583 5.43421339 6.76129583 5.43421339 9.1484375 4.91796875 C12.40594811 4.03038861 15.51771354 2.90663983 18.6796875 1.72265625 C37.65312191 -5.1147276 55.58312501 -4.62115698 74.16162109 3.84545898 C81.84214626 7.54512524 88.00415881 11.96771185 93.9296875 18.16015625 C94.63480469 18.8459375 95.33992187 19.53171875 96.06640625 20.23828125 C103.60769612 27.99503654 108.57202321 37.43118029 109.9296875 48.16015625 C104.05835845 48.38316154 98.18950699 48.54618085 92.31494141 48.65454102 C90.31841081 48.69971799 88.32217664 48.76107711 86.32666016 48.83911133 C69.64834425 49.47483189 69.64834425 49.47483189 65.39331055 46.2199707 C63.83984375 43.80859375 63.83984375 43.80859375 62.87524414 41.39599609 C61.209747 37.45780274 57.66316838 35.90293346 53.9296875 34.16015625 C47.39170438 31.544963 41.90323122 31.76761525 35.34375 34.06640625 C28.23595918 37.22542439 24.1056521 41.50835915 20.82421875 48.5234375 C17.92471348 57.07001417 18.31649423 65.94835336 21.9296875 74.16015625 C25.77537975 81.18849037 31.26857382 85.77390773 38.9296875 88.16015625 C47.01733011 89.29242622 53.14213665 87.65564235 59.9296875 83.16015625 C60.9196875 82.17015625 61.9096875 81.18015625 62.9296875 80.16015625 C52.3696875 79.83015625 41.8096875 79.50015625 30.9296875 79.16015625 C30.9296875 71.90015625 30.9296875 64.64015625 30.9296875 57.16015625 C57.3296875 57.16015625 83.7296875 57.16015625 110.9296875 57.16015625 C110.9296875 76.40835866 106.51194302 90.59666461 93.0625 104.29296875 C78.64811278 118.061798 60.40805972 123.65639454 40.82275391 123.58813477 C30.07422208 123.31559033 20.73026753 120.48977958 10.9296875 116.16015625 C10.9296875 118.47015625 10.9296875 120.78015625 10.9296875 123.16015625 C-2.9303125 123.16015625 -16.7903125 123.16015625 -31.0703125 123.16015625 C-31.0703125 101.38015625 -31.0703125 79.60015625 -31.0703125 57.16015625 C-28.7603125 57.16015625 -26.4503125 57.16015625 -24.0703125 57.16015625 C-24.0909375 55.90203125 -24.1115625 54.64390625 -24.1328125 53.34765625 C-24.17917333 50.51964538 -23.98724211 48.91094509 -23.0703125 46.16015625 C-23.7715625 45.93328125 -24.4728125 45.70640625 -25.1953125 45.47265625 C-31.74830911 42.48107084 -35.18777402 38.43799195 -38.1484375 31.96875 C-40.43344222 25.00723137 -40.01600435 18.4411555 -37.0078125 11.78515625 C-29.32817827 -1.63806997 -14.01101474 -6.95564611 0 0 Z M-6.515625 18.35546875 C-13.19713667 25.22322465 -21.0703125 36.26358472 -21.0703125 46.16015625 C-15.93790302 48.72636099 -8.46822366 47.93689898 -3.1640625 46.21875 C3.72915428 42.90709917 8.94027378 38.6210152 12.19921875 31.59765625 C14.20094106 24.91811227 14.0483294 17.61835406 10.9296875 11.34765625 C10.2696875 10.29578125 9.6096875 9.24390625 8.9296875 8.16015625 C3.43081308 8.16015625 -2.61838325 14.85666705 -6.515625 18.35546875 Z M-23.0703125 58.16015625 C-23.0703125 78.30101435 -17.2096642 91.38050621 -3.20703125 105.5546875 C0.81978618 108.89950347 5.44088997 111.46687773 9.9296875 114.16015625 C9.9296875 95.68015625 9.9296875 77.20015625 9.9296875 58.16015625 C-0.9603125 58.16015625 -11.8503125 58.16015625 -23.0703125 58.16015625 Z " fill="#ffffff" transform="translate(39.0703125,14.83984375)"/>
</svg>
